<svg id="Layer_1" enable-background="new 0 0 510.99 510.99" height="512" viewBox="0 0 510.99 510.99" width="512" xmlns="http://www.w3.org/2000/svg"><g><g><g><path d="m409.526 102.296c-50.018 0-90.566 40.54-90.566 90.549 0 26.369 11.276 50.101 29.267 66.65v23.875l21.595-9.123c11.989 5.857 25.461 9.148 39.703 9.148 50.018 0 90.566-40.54 90.566-90.549 0-50.01-40.547-90.55-90.565-90.55z" fill="#a6f5cf"/><g><path d="m409.526 102.296c-6.872 0-13.566.766-20 2.216 40.395 9.104 70.565 45.196 70.565 88.334 0 43.136-30.168 79.227-70.561 88.332 6.432 1.451 13.124 2.217 19.995 2.217 50.018 0 90.565-40.54 90.565-90.549.001-50.01-40.546-90.55-90.564-90.55z" fill="#8aedbd"/></g><g><g><g><path d="m9.552 143.467c0-75.092 61.396-135.967 137.132-135.967s137.132 60.875 137.132 135.967v138.844h-275.145z" fill="#ffd54d"/><path d="m146.684 7.5c-6.793 0-13.471.49-20 1.436 66.256 9.599 117.132 66.174 117.132 134.531v138.844h40v-138.844c0-75.092-61.396-135.967-137.132-135.967z" fill="#ffc919"/><g><path d="m7.5 427.193v-20.887c0-76.218 62.316-138.005 139.187-138.005s139.187 61.787 139.187 138.005v20.887z" fill="#d4d9ff"/></g><path d="m96.405 268.301-44.617 37.063 57.572 39.386 37.49-42.811z" fill="#f4f4f4"/><path d="m197.296 268.301 44.617 37.063-57.572 39.386-37.491-42.811z" fill="#f4f4f4"/><g><path d="m56.935 177.098c-3.319 9.594-5.147 19.876-5.147 30.586 0 52.055 42.561 94.255 95.062 94.255s95.062-42.199 95.062-94.255c0-10.711-5.147-30.586-5.147-30.586-48.92-11.403-66.55-61.862-66.55-61.862-27.924 73.86-113.28 61.862-113.28 61.862z" fill="#ffdbd3"/></g></g><g fill="#7776d0"><path d="m43.498 229.06h-.166c-10.74 0-19.446-8.706-19.446-19.446v-24.473c0-10.74 8.706-19.446 19.446-19.446h.166c10.74 0 19.446 8.706 19.446 19.446v24.473c-.001 10.74-8.707 19.446-19.446 19.446z"/><path d="m249.156 229.06h-.166c-10.74 0-19.446-8.706-19.446-19.446v-24.473c0-10.74 8.706-19.446 19.446-19.446h.166c10.74 0 19.446 8.706 19.446 19.446v24.473c0 10.74-8.706 19.446-19.446 19.446z"/></g><g><ellipse cx="149.239" cy="258.641" fill="#7776d0" rx="17.899" ry="17.747"/></g></g><path d="m48.858 395.379h57.408v28.756h-57.408z" fill="#ffd54d"/></g><g><path d="m430.624 503.49h-288.448c-8.652 0-15.666-7.014-15.666-15.666v-12.924h319.78v12.924c0 8.652-7.014 15.666-15.666 15.666z" fill="#6967bf"/><path d="m456.725 503.49h-212.817c-9.281 0-16.256-8.47-14.476-17.579l27.557-141.021c1.77-9.055 9.704-15.589 18.93-15.589h212.817c9.281 0 16.256 8.47 14.476 17.579l-27.557 141.021c-1.769 9.055-9.704 15.589-18.93 15.589z" fill="#7776d0"/><path d="m488.736 329.301h-40c9.281 0 16.256 8.47 14.476 17.579l-27.557 141.021c-1.77 9.055-9.704 15.589-18.93 15.589h40c9.226 0 17.161-6.534 18.93-15.589l27.557-141.021c1.78-9.109-5.195-17.579-14.476-17.579z" fill="#6967bf"/></g></g><circle cx="366.322" cy="416.396" fill="#fff" r="23.44"/></g><g><path d="m340.727 262.709v20.661c0 15.075 23.56 1.357 28.943-.917 12.56 5.604 25.95 8.441 39.855 8.441 54.073 0 98.065-43.984 98.065-98.049s-43.992-98.05-98.065-98.05-98.065 43.985-98.065 98.05c0 26.223 10.628 51.496 29.267 69.864zm68.799-152.913c45.803 0 83.065 37.256 83.065 83.05 0 45.793-37.263 83.049-83.065 83.049-12.77 0-25.02-2.821-36.411-8.387-2.058-.954-4.128-1.011-6.211-.17l-11.177 4.722v-12.564c0-2.098-.879-4.1-2.423-5.52-17.06-15.693-26.844-37.975-26.844-61.13 0-45.794 37.263-83.05 83.066-83.05z"/><path d="m385.994 179.829c4.143 0 7.5-3.357 7.5-7.5 0-8.726 7.651-16.16 16.367-16.029 8.356.168 15.242 6.83 15.675 15.166.471 9.064-6.922 16.896-16.01 16.896-4.143 0-7.5 3.357-7.5 7.5v24.607c0 4.143 3.357 7.5 7.5 7.5s7.5-3.357 7.5-7.5v-18.037c14.235-3.569 24.251-17.074 23.49-31.743-.839-16.152-14.172-29.06-30.354-29.385-17.165-.362-31.669 13.876-31.669 31.025.001 4.143 3.358 7.5 7.501 7.5z"/><path d="m409.526 235.969c-9.652 0-9.668 15 0 15 9.652 0 9.668-15 0-15z"/><path d="m106.267 387.879h-57.408c-4.143 0-7.5 3.357-7.5 7.5v28.756c0 4.143 3.357 7.5 7.5 7.5h57.408c4.143 0 7.5-3.357 7.5-7.5v-28.756c0-4.143-3.357-7.5-7.5-7.5zm-7.5 28.756h-42.408v-13.756h42.408z"/><path d="m505.912 329.907c-4.242-5.151-10.502-8.106-17.176-8.106h-212.817c-3.047 0-5.996.518-8.754 1.476-8.984-12.809-20.002-24.134-32.556-33.465h49.207c4.143 0 7.5-3.357 7.5-7.5v-138.845c0-79.108-64.882-143.467-144.632-143.467-21.831 0-42.813 4.706-62.363 13.987-8.76 4.159-2.328 17.709 6.434 13.551 17.523-8.319 36.34-12.538 55.929-12.538 71.479 0 129.632 57.63 129.632 128.467v131.345h-52.398c10.657-12.055 18.583-26.418 21.565-38.48 1.221.116 2.447.192 3.674.228 14.858 0 26.946-12.088 26.946-26.945v-24.474c0-12.286-8.266-22.678-19.529-25.907v-12.87c0-60.354-49.493-109.456-110.329-109.456s-110.33 49.101-110.33 109.455v12.87c-9.753 2.796-17.259 10.964-19.096 21.081l.234-36.847c0-36.219 15.55-70.942 42.663-95.267 7.218-6.477-2.798-17.64-10.018-11.166-30.28 27.166-47.646 65.959-47.646 106.385v138.845c.406 4.596 2.026 7.112 6.619 7.548h50.095c-36.592 27.197-58.766 70.872-58.766 116.494v20.888c0 9.697 15 9.697 15 0v-20.888c0-33.988 13.712-67.132 37.586-91.309l52.54 35.943c3.45 2.093 6.742 1.677 9.877-1.249l24.347-27.802v105.304c0 9.697 15 9.697 15 0v-105.304l24.348 27.803c3.135 2.926 6.427 3.342 9.877 1.249l52.346-35.81c5.113 5.193 9.802 10.818 14.011 16.828-2.599 3.271-4.46 7.179-5.303 11.494l-24.221 123.947h-98.898c-4.143 0-7.5 3.357-7.5 7.5v12.924c0 12.773 10.393 23.166 23.166 23.166h314.549c12.782 0 23.839-9.105 26.29-21.65l4.33-22.154c1.861-9.515-12.861-12.398-14.721-2.877l-4.33 22.154c-1.079 5.521-5.944 9.527-11.569 9.527h-212.817c-4.528 0-7.983-4.196-7.115-8.64l27.557-141.021c1.079-5.521 5.945-9.528 11.57-9.528h212.816c4.528 0 7.984 4.197 7.116 8.641l-15.572 79.688c-1.861 9.516 12.861 12.396 14.721 2.877l15.572-79.688c1.28-6.549-.419-13.26-4.661-18.412zm-359.062-35.468c-.015 0-.029 0-.044 0-40.008-.02-75.021-27.216-84.81-65.251 5.198-4.915 8.446-11.872 8.446-19.574v-24.301c24.125-.067 73.974-6.219 99.839-52.43 8.384 14.876 24.73 36.8 52.167 47.592-.266 1.516-.405 3.075-.405 4.666v24.474c0 8.174 3.659 15.51 9.426 20.456-.017.064-.034.128-.052.192-10.089 13.591-26.159 21.779-43.511 21.779h-14.15c-2.927-10.731-12.811-18.647-24.519-18.647-14.005 0-25.398 11.326-25.398 25.247s11.394 25.247 25.398 25.247c11.043 0 20.464-7.043 23.954-16.847h14.715c9.757 0 19.198-2.032 27.81-5.79-16.476 20.797-42.308 33.187-68.866 33.187zm2.389-25.551c-5.733 0-10.398-4.597-10.398-10.247s4.665-10.247 10.398-10.247c5.734 0 10.399 4.597 10.399 10.247s-4.665 10.247-10.399 10.247zm111.863-83.747v24.474c0 6.587-5.359 11.945-11.946 11.945-6.322-.251-12.111-5.03-12.111-11.945v-24.474c0-6.587 5.358-11.945 11.945-11.945h.166c6.587-.001 11.946 5.358 11.946 11.945zm-114.858-133.234c52.564 0 95.329 42.373 95.329 94.456v12.87c-4.847 1.39-9.138 4.106-12.455 7.728-37.22-14.011-51.678-53.795-51.822-54.199-2.239-6.411-11.677-6.574-14.096-.179-9.233 24.423-26.242 41.408-50.554 50.484-18.305 6.833-36.264 7.542-46.703 7.181-3.504-5.265-8.81-9.232-15.029-11.016v-12.87c.001-52.082 42.765-94.455 95.33-94.455zm-114.859 133.234c0-6.587 5.359-11.945 11.946-11.945h.166c6.587 0 11.945 5.358 11.945 11.945v24.474c0 6.587-5.358 11.945-11.945 11.945h-.166c-6.587 0-11.946-5.358-11.946-11.945zm-14.774 27.963c1.717 13.215 13.045 23.455 26.721 23.455h.166c1.656 0 3.278-.151 4.852-.438 4.271 14.576 11.723 27.705 21.493 38.69h-53.232zm91.492 121.699-44.046-30.133c7.02-5.611 14.626-10.511 22.715-14.612 13.008 9.342 28.236 15.711 44.571 18.205zm77.495 0-23.24-26.539c16.026-2.441 31.335-8.629 44.518-18.067 8.045 4.102 15.609 8.996 22.593 14.593zm-43.422 161.187c-4.503 0-8.166-3.663-8.166-8.166v-5.424h88.467c-1.146 4.443-1.118 9.226.388 13.59z"/><path d="m335.382 416.396c0 17.061 13.879 30.939 30.939 30.939s30.939-13.879 30.939-30.939-13.879-30.939-30.939-30.939-30.939 13.878-30.939 30.939zm46.879 0c0 8.789-7.15 15.939-15.939 15.939s-15.939-7.15-15.939-15.939 7.15-15.939 15.939-15.939 15.939 7.149 15.939 15.939z"/></g></g></svg>